<svg width="18" height="16" viewBox="0 0 18 16" fill="none" xmlns="http://www.w3.org/2000/svg">
<g clip-path="url(#clip0_155_1142)">
<path d="M11.9999 11C11.4468 11 10.9999 11.4469 10.9999 12C10.9999 12.5531 11.4468 13 11.9999 13H16.9999C17.553 13 17.9999 12.5531 17.9999 12V7C17.9999 6.44688 17.553 6 16.9999 6C16.4468 6 15.9999 6.44688 15.9999 7V9.58438L10.7062 4.29375C10.3155 3.90313 9.68115 3.90313 9.29053 4.29375L5.9999 7.58438L1.70615 3.29375C1.31553 2.90313 0.681152 2.90313 0.290527 3.29375C-0.100098 3.68438 -0.100098 4.31875 0.290527 4.70938L5.29053 9.70938C5.68115 10.1 6.31553 10.1 6.70615 9.70938L9.9999 6.41563L14.5843 11H11.9999Z" fill="white"/>
</g>
<defs>
<clipPath id="clip0_155_1142">
<rect width="18" height="16" fill="white"/>
</clipPath>
</defs>
</svg>
