<svg width="19" height="16" viewBox="0 0 19 16" fill="none" xmlns="http://www.w3.org/2000/svg">
<g clip-path="url(#clip0_81_467)">
<path d="M12.4999 11C11.9468 11 11.4999 11.4469 11.4999 12C11.4999 12.5531 11.9468 13 12.4999 13H17.4999C18.053 13 18.4999 12.5531 18.4999 12V7C18.4999 6.44688 18.053 6 17.4999 6C16.9468 6 16.4999 6.44688 16.4999 7V9.58438L11.2062 4.29375C10.8155 3.90313 10.1812 3.90313 9.79053 4.29375L6.4999 7.58438L2.20615 3.29375C1.81553 2.90313 1.18115 2.90313 0.790527 3.29375C0.399902 3.68438 0.399902 4.31875 0.790527 4.70938L5.79053 9.70938C6.18115 10.1 6.81553 10.1 7.20615 9.70938L10.4999 6.41563L15.0843 11H12.4999Z" fill="white"/>
</g>
<defs>
<clipPath id="clip0_81_467">
<rect width="18" height="16" fill="white" transform="translate(0.5)"/>
</clipPath>
</defs>
</svg>
