<svg width="25" height="34" viewBox="0 0 25 34" fill="none" xmlns="http://www.w3.org/2000/svg">
<g clip-path="url(#clip0_245_709)">
<path d="M3.125 0.333313C1.39974 0.333313 0 1.73305 0 3.45831V30.5417C0 32.2669 1.39974 33.6667 3.125 33.6667H9.375V28.4583C9.375 26.7331 10.7747 25.3333 12.5 25.3333C14.2253 25.3333 15.625 26.7331 15.625 28.4583V33.6667H21.875C23.6003 33.6667 25 32.2669 25 30.5417V3.45831C25 1.73305 23.6003 0.333313 21.875 0.333313H3.125ZM4.16667 15.9583C4.16667 15.3854 4.63542 14.9167 5.20833 14.9167H7.29167C7.86458 14.9167 8.33333 15.3854 8.33333 15.9583V18.0417C8.33333 18.6146 7.86458 19.0833 7.29167 19.0833H5.20833C4.63542 19.0833 4.16667 18.6146 4.16667 18.0417V15.9583ZM11.4583 14.9167H13.5417C14.1146 14.9167 14.5833 15.3854 14.5833 15.9583V18.0417C14.5833 18.6146 14.1146 19.0833 13.5417 19.0833H11.4583C10.8854 19.0833 10.4167 18.6146 10.4167 18.0417V15.9583C10.4167 15.3854 10.8854 14.9167 11.4583 14.9167ZM16.6667 15.9583C16.6667 15.3854 17.1354 14.9167 17.7083 14.9167H19.7917C20.3646 14.9167 20.8333 15.3854 20.8333 15.9583V18.0417C20.8333 18.6146 20.3646 19.0833 19.7917 19.0833H17.7083C17.1354 19.0833 16.6667 18.6146 16.6667 18.0417V15.9583ZM5.20833 6.58332H7.29167C7.86458 6.58332 8.33333 7.05207 8.33333 7.62498V9.70832C8.33333 10.2812 7.86458 10.75 7.29167 10.75H5.20833C4.63542 10.75 4.16667 10.2812 4.16667 9.70832V7.62498C4.16667 7.05207 4.63542 6.58332 5.20833 6.58332ZM10.4167 7.62498C10.4167 7.05207 10.8854 6.58332 11.4583 6.58332H13.5417C14.1146 6.58332 14.5833 7.05207 14.5833 7.62498V9.70832C14.5833 10.2812 14.1146 10.75 13.5417 10.75H11.4583C10.8854 10.75 10.4167 10.2812 10.4167 9.70832V7.62498ZM17.7083 6.58332H19.7917C20.3646 6.58332 20.8333 7.05207 20.8333 7.62498V9.70832C20.8333 10.2812 20.3646 10.75 19.7917 10.75H17.7083C17.1354 10.75 16.6667 10.2812 16.6667 9.70832V7.62498C16.6667 7.05207 17.1354 6.58332 17.7083 6.58332Z" fill="#F07D00"/>
</g>
<defs>
<clipPath id="clip0_245_709">
<rect width="25" height="33.3334" fill="white" transform="translate(0 0.333313)"/>
</clipPath>
</defs>
</svg>
