<svg width="20" height="16" viewBox="0 0 20 16" fill="none" xmlns="http://www.w3.org/2000/svg">
<path d="M2 3C2 1.89688 2.89688 1 4 1H16C17.1031 1 18 1.89688 18 3V11H16V3H4V11H2V3ZM0 12.6C0 12.2688 0.26875 12 0.6 12H19.4C19.7312 12 20 12.2688 20 12.6C20 13.925 18.925 15 17.6 15H2.4C1.075 15 0 13.925 0 12.6ZM8.78125 6.53125L7.8125 7.5L8.78125 8.46875C9.075 8.7625 9.075 9.2375 8.78125 9.52812C8.4875 9.81875 8.0125 9.82187 7.72188 9.52812L6.22188 8.02812C5.92813 7.73437 5.92813 7.25938 6.22188 6.96875L7.72188 5.46875C8.01563 5.175 8.49062 5.175 8.78125 5.46875C9.07188 5.7625 9.075 6.2375 8.78125 6.52812V6.53125ZM12.2812 5.46875L13.7812 6.96875C14.075 7.2625 14.075 7.7375 13.7812 8.02812L12.2812 9.52812C11.9875 9.82187 11.5125 9.82187 11.2219 9.52812C10.9313 9.23437 10.9281 8.75938 11.2219 8.46875L12.1906 7.5L11.2219 6.53125C10.9281 6.2375 10.9281 5.7625 11.2219 5.47188C11.5156 5.18125 11.9906 5.17813 12.2812 5.47188V5.46875Z" fill="white"/>
</svg>
