<svg width="20" height="16" viewBox="0 0 20 16" fill="none" xmlns="http://www.w3.org/2000/svg">
<g clip-path="url(#clip0_81_506)">
<path d="M9.99999 1C9.74687 1 9.49687 1.04375 9.25937 1.12812L0.493743 4.29375C0.196868 4.40312 -7.27281e-06 4.68438 -7.27281e-06 5C-7.27281e-06 5.31563 0.196868 5.59688 0.493743 5.70625L2.30312 6.35938C1.79062 7.16563 1.49999 8.11875 1.49999 9.12187V10C1.49999 10.8875 1.16249 11.8031 0.803118 12.525C0.599993 12.9312 0.368743 13.3313 0.0999927 13.7C-7.27177e-06 13.8344 -0.0281323 14.0094 0.0281177 14.1687C0.0843677 14.3281 0.215618 14.4469 0.378118 14.4875L2.37812 14.9875C2.50937 15.0219 2.64999 14.9969 2.76562 14.925C2.88124 14.8531 2.96249 14.7344 2.98749 14.6C3.25624 13.2625 3.12187 12.0625 2.92187 11.2031C2.82187 10.7594 2.68749 10.3062 2.49999 9.89062V9.12187C2.49999 8.17812 2.81874 7.2875 3.37187 6.575C3.77499 6.09062 4.29687 5.7 4.90937 5.45937L9.81562 3.53125C10.0719 3.43125 10.3625 3.55625 10.4625 3.8125C10.5625 4.06875 10.4375 4.35938 10.1812 4.45937L5.27499 6.3875C4.88749 6.54062 4.54687 6.775 4.26874 7.0625L9.25624 8.8625C9.49374 8.94688 9.74374 8.99063 9.99687 8.99063C10.25 8.99063 10.5 8.94688 10.7375 8.8625L19.5062 5.70625C19.8031 5.6 20 5.31563 20 5C20 4.68438 19.8031 4.40312 19.5062 4.29375L10.7406 1.12812C10.5031 1.04375 10.2531 1 9.99999 1ZM3.99999 12.75C3.99999 13.8531 6.68749 15 9.99999 15C13.3125 15 16 13.8531 16 12.75L15.5219 8.20625L11.0781 9.8125C10.7312 9.9375 10.3656 10 9.99999 10C9.63437 10 9.26562 9.9375 8.92187 9.8125L4.47812 8.20625L3.99999 12.75Z" fill="white"/>
</g>
<defs>
<clipPath id="clip0_81_506">
<rect width="20" height="16" fill="white"/>
</clipPath>
</defs>
</svg>
