<svg width="20" height="15" viewBox="0 0 20 15" fill="none" xmlns="http://www.w3.org/2000/svg">
<g clip-path="url(#clip0_81_737)">
<path d="M18.1188 7.86562C19.8845 6.1 19.8845 3.24062 18.1188 1.475C16.5563 -0.0875031 14.0938 -0.290628 12.297 0.993747L12.247 1.02812C11.797 1.35 11.6938 1.975 12.0157 2.42187C12.3376 2.86875 12.9626 2.975 13.4095 2.65312L13.4595 2.61875C14.4626 1.90312 15.8345 2.01562 16.7032 2.8875C17.6876 3.87187 17.6876 5.46562 16.7032 6.45L13.197 9.9625C12.2126 10.9469 10.6188 10.9469 9.63447 9.9625C8.7626 9.09062 8.6501 7.71875 9.36572 6.71875L9.4001 6.66875C9.72197 6.21875 9.61572 5.59375 9.16885 5.275C8.72197 4.95625 8.09385 5.05937 7.7751 5.50625L7.74072 5.55625C6.45322 7.35 6.65635 9.8125 8.21885 11.375C9.98447 13.1406 12.8438 13.1406 14.6095 11.375L18.1188 7.86562ZM1.88135 7.13437C0.115723 8.9 0.115723 11.7594 1.88135 13.525C3.44385 15.0875 5.90635 15.2906 7.70322 14.0062L7.75322 13.9719C8.20322 13.65 8.30635 13.025 7.98447 12.5781C7.6626 12.1312 7.0376 12.025 6.59072 12.3469L6.54072 12.3812C5.5376 13.0969 4.16572 12.9844 3.29697 12.1125C2.3126 11.125 2.3126 9.53125 3.29697 8.54687L6.80322 5.0375C7.7876 4.05312 9.38135 4.05312 10.3657 5.0375C11.2376 5.90937 11.3501 7.28125 10.6345 8.28437L10.6001 8.33437C10.2782 8.78437 10.3845 9.40937 10.8313 9.72812C11.2782 10.0469 11.9063 9.94375 12.2251 9.49687L12.2595 9.44687C13.547 7.65 13.3438 5.1875 11.7813 3.625C10.0157 1.85937 7.15635 1.85937 5.39072 3.625L1.88135 7.13437Z" fill="white"/>
</g>
<defs>
<clipPath id="clip0_81_737">
<rect width="20" height="15" fill="white"/>
</clipPath>
</defs>
</svg>
