<svg width="35" height="28" viewBox="0 0 35 28" fill="none" xmlns="http://www.w3.org/2000/svg">
<g clip-path="url(#clip0_245_529)">
<path d="M18.4734 0.295312C17.8828 -0.0984375 17.1172 -0.0984375 16.5266 0.295312L9.09453 5.25H2.625C1.17578 5.25 0 6.42578 0 7.875V25.375C0 26.8242 1.17578 28 2.625 28H14V22.75C14 20.8195 15.5695 19.25 17.5 19.25C19.4305 19.25 21 20.8195 21 22.75V28H32.375C33.8242 28 35 26.8242 35 25.375V7.875C35 6.42578 33.8242 5.25 32.375 5.25H25.9055L18.4734 0.295312ZM5.25 10.5H7C7.48125 10.5 7.875 10.8937 7.875 11.375V14.875C7.875 15.3562 7.48125 15.75 7 15.75H5.25C4.76875 15.75 4.375 15.3562 4.375 14.875V11.375C4.375 10.8937 4.76875 10.5 5.25 10.5ZM27.125 11.375C27.125 10.8937 27.5187 10.5 28 10.5H29.75C30.2313 10.5 30.625 10.8937 30.625 11.375V14.875C30.625 15.3562 30.2313 15.75 29.75 15.75H28C27.5187 15.75 27.125 15.3562 27.125 14.875V11.375ZM5.25 17.5H7C7.48125 17.5 7.875 17.8937 7.875 18.375V21.875C7.875 22.3562 7.48125 22.75 7 22.75H5.25C4.76875 22.75 4.375 22.3562 4.375 21.875V18.375C4.375 17.8937 4.76875 17.5 5.25 17.5ZM27.125 18.375C27.125 17.8937 27.5187 17.5 28 17.5H29.75C30.2313 17.5 30.625 17.8937 30.625 18.375V21.875C30.625 22.3562 30.2313 22.75 29.75 22.75H28C27.5187 22.75 27.125 22.3562 27.125 21.875V18.375ZM12.6875 9.625C12.6875 8.34864 13.1945 7.12456 14.097 6.22205C14.9996 5.31953 16.2236 4.8125 17.5 4.8125C18.7764 4.8125 20.0004 5.31953 20.903 6.22205C21.8055 7.12456 22.3125 8.34864 22.3125 9.625C22.3125 10.9014 21.8055 12.1254 20.903 13.0279C20.0004 13.9305 18.7764 14.4375 17.5 14.4375C16.2236 14.4375 14.9996 13.9305 14.097 13.0279C13.1945 12.1254 12.6875 10.9014 12.6875 9.625ZM17.5 7C17.0187 7 16.625 7.39375 16.625 7.875V9.625C16.625 10.1062 17.0187 10.5 17.5 10.5H19.25C19.7313 10.5 20.125 10.1062 20.125 9.625C20.125 9.14375 19.7313 8.75 19.25 8.75H18.375V7.875C18.375 7.39375 17.9813 7 17.5 7Z" fill="#F07D00"/>
</g>
<defs>
<clipPath id="clip0_245_529">
<rect width="35" height="28" fill="white"/>
</clipPath>
</defs>
</svg>
