<svg width="77" height="84" viewBox="0 0 77 84" fill="none" xmlns="http://www.w3.org/2000/svg">
<circle cx="38.5" cy="42.5" r="38.5" fill="#F07D00"/>
<path fill-rule="evenodd" clip-rule="evenodd" d="M16.2044 54.346C13.3301 49.5915 20.802 39.8115 32.8934 32.5018C44.9847 25.1921 57.1168 23.1208 59.9911 27.8753L57.1354 29.6017C54.6361 25.4673 44.0864 27.2685 33.5722 33.6247C23.058 39.981 16.5607 48.4853 19.06 52.6197L16.2044 54.346Z" fill="black"/>
<path d="M38.9694 62.392C36.0948 62.392 33.5188 61.9253 31.2414 60.992C28.9641 60.0587 27.1348 58.6773 25.7534 56.848C24.4094 55.0187 23.7001 52.816 23.6254 50.24H33.8174C33.9668 51.696 34.4708 52.816 35.3294 53.6C36.1881 54.3467 37.3081 54.72 38.6894 54.72C40.1081 54.72 41.2281 54.4027 42.0494 53.768C42.8708 53.096 43.2814 52.1813 43.2814 51.024C43.2814 50.0533 42.9454 49.2507 42.2734 48.616C41.6388 47.9813 40.8361 47.4587 39.8654 47.048C38.9321 46.6373 37.5881 46.1707 35.8334 45.648C33.2948 44.864 31.2228 44.08 29.6174 43.296C28.0121 42.512 26.6308 41.3547 25.4734 39.824C24.3161 38.2933 23.7374 36.296 23.7374 33.832C23.7374 30.1733 25.0628 27.3173 27.7134 25.264C30.3641 23.1733 33.8174 22.128 38.0734 22.128C42.4041 22.128 45.8948 23.1733 48.5454 25.264C51.1961 27.3173 52.6148 30.192 52.8014 33.888H42.4414C42.3668 32.6187 41.9001 31.6293 41.0414 30.92C40.1828 30.1733 39.0814 29.8 37.7374 29.8C36.5801 29.8 35.6468 30.1173 34.9374 30.752C34.2281 31.3493 33.8734 32.2267 33.8734 33.384C33.8734 34.6533 34.4708 35.6427 35.6654 36.352C36.8601 37.0613 38.7268 37.8267 41.2654 38.648C43.8041 39.5067 45.8574 40.328 47.4254 41.112C49.0308 41.896 50.4121 43.0347 51.5694 44.528C52.7268 46.0213 53.3054 47.944 53.3054 50.296C53.3054 52.536 52.7268 54.5707 51.5694 56.4C50.4494 58.2293 48.8068 59.6853 46.6414 60.768C44.4761 61.8507 41.9188 62.392 38.9694 62.392Z" fill="white"/>
<circle cx="18" cy="53" r="3" fill="black"/>
<circle cx="59" cy="29" r="3" fill="black"/>
<path fill-rule="evenodd" clip-rule="evenodd" d="M60.3112 29C63.0891 33.8115 55.4217 43.4389 43.1855 50.5035C30.9493 57.5681 18.7779 59.3946 16 54.5831L18.8899 52.9146C21.3054 57.0985 31.8892 55.5103 42.5294 49.3672C53.1695 43.2241 59.8369 34.8524 57.4213 30.6685L60.3112 29Z" fill="black"/>
</svg>
